<svg v-show="isFull" t="1687936261174" class="icon" viewBox="0 0 1024 1024" version="1.1" xmlns="http://www.w3.org/2000/svg" p-id="10239" width="30" height="30"><path d="M730.791936 328.03170987c0-20.05292373-16.41458347-36.4675072-36.4675072-36.4675072H329.6657408c-20.05838507 0-36.46204587 16.41458347-36.46204587 36.4675072v364.658688c0 20.05838507 16.4036608 36.4675072 36.46204587 36.4675072h364.658688c20.05292373 0 36.4675072-16.40912213 36.4675072-36.4675072V328.03170987z m-36.4675072 346.42875733c0 10.94014293-7.29634133 18.23102293-18.23102293 18.23102293H347.90222507c-10.94560427 0-18.23648427-7.29088-18.23648427-18.23102293V346.26819413c0-10.94014293 7.29088-18.23648427 18.23648427-18.23648426h328.1911808c10.9346816 0 18.23102293 7.29634133 18.23102293 18.23648426v328.19227307z m62.64149333-387.2555008c4.3646976 4.35923627 13.08972373 4.35923627 17.45442134 4.35923627h130.86665386c26.16743253 0 43.6109312-17.44349867 43.6109312-43.61639254 0-26.16743253-17.44349867-43.62185387-43.6109312-43.62185386h-26.1783552l56.71703894-56.7115776c17.44349867-17.44896 17.44349867-43.62185387 0-61.07081387-8.7293952-8.72393387-17.45442133-13.08972373-30.53868374-13.08972373s-21.8136576 4.3646976-30.53868373 13.08972373l-56.70611627 56.7115776v-26.1783552c0-26.16743253-17.45442133-43.62185387-43.62185386-43.62185387-26.1783552 0-43.6273152 17.45442133-43.6273152 43.62185387v130.8721152c0 4.3646976 0 13.08972373 4.35923626 17.45442133 4.3646976 8.71847253 13.08863147 17.4424064 21.8136576 21.80164267z m122.14162774 529.19773867h26.1783552c26.16743253 0 43.6109312-17.44896 43.6109312-43.61639254 0-26.1783552-17.44349867-43.6273152-43.6109312-43.6273152H774.4192512c-4.3646976 0-13.08972373 0-17.45442133 4.35923627-8.72393387 4.3646976-17.44896 13.08972373-21.8136576 21.8136576-4.35923627 4.35923627-4.35923627 13.08972373-4.35923627 17.45442133v130.86665387c0 26.16743253 17.44896 43.61639253 43.6273152 43.61639253 26.16743253 0 43.62185387-17.44896 43.62185387-43.61639253v-26.1783552l56.70611626 56.7115776c17.45442133 17.44349867 43.62185387 17.44349867 61.0762752 0 17.44349867-17.45442133 17.44349867-43.62185387 0-61.0762752l-56.71594666-56.70720853zM75.09333333 247.94781013c0 26.17289387 17.45442133 43.61639253 43.62185387 43.61639254h130.86665387c4.35923627 0 13.08972373 0 17.44896-4.35923627 8.72393387-4.35923627 17.44896-13.0842624 21.8136576-21.80273493 4.35923627-4.3646976 4.35923627-13.08972373 4.35923626-17.45442134V117.0767872c0-26.16743253-17.44896-43.62185387-43.62185386-43.62185387-26.17289387 0-43.62185387 17.45442133-43.62185387 43.62185387v26.1783552l-56.71703893-56.7115776c-8.71847253-8.72393387-17.44349867-13.08972373-30.5266688-13.08972373-13.09518507 0-21.8136576 4.3646976-30.53868374 13.08972373-17.44349867 17.44896-17.44349867 43.62185387 0 61.07081387l56.7115776 56.7115776h-26.17289386c-26.1685248 0-43.62294613 17.45442133-43.62294614 43.62185386z m191.93746774 485.57042347c-4.35923627-4.35923627-13.08972373-4.35923627-17.44896-4.35923627H118.7151872c-26.16743253 0-43.62185387 17.44896-43.62185387 43.6273152 0 26.16743253 17.45442133 43.61639253 43.62185387 43.61639254H144.88917333l-56.7115776 56.70611626c-17.44349867 17.45442133-17.44349867 43.62185387 0 61.0762752 17.44349867 17.44349867 43.62185387 17.44349867 61.06535254 0l56.71703893-56.7115776v26.1783552c0 26.16743253 17.44896 43.61639253 43.62185387 43.61639254 26.17289387 0 43.62185387-17.44896 43.62185386-43.61639254V772.78631253c0-4.3646976 0-13.09518507-4.35923626-17.45442133-4.3646976-8.72502613-13.08972373-17.44896-21.8136576-21.8136576z"  p-id="10240"></path></svg>
