<svg t="1689040199678" class="icon" viewBox="0 0 1028 1024" version="1.1" xmlns="http://www.w3.org/2000/svg" p-id="1855" width="200" height="200"><path d="M546.816 1.024q99.328 0 186.88 37.888t152.576 102.912 102.912 152.576 37.888 186.88-37.888 186.88-102.912 152.576-152.576 102.4-186.88 37.376q-88.064 0-166.4-29.696t-141.824-81.92l116.736-248.832q21.504 34.816 39.936 64.512 15.36 25.6 30.72 48.64t21.504 31.232q11.264 14.336 20.992 26.624t27.136 14.336q21.504 3.072 30.72-7.68t20.48-28.16q3.072-4.096 11.776-21.504t20.992-43.008 27.648-56.832 30.72-64q35.84-75.776 79.872-168.96l108.544 58.368-44.032-316.416-278.528 171.008 121.856 41.984-129.024 265.216q-29.696-48.128-51.2-83.968-9.216-15.36-17.92-29.184t-14.848-24.064l-9.216-15.36q4.096 8.192 0.512 2.56t-11.776-15.872-18.432-20.48-19.456-10.24q-23.552 0-33.792 11.776t-16.384 27.136q-2.048 4.096-10.24 22.016t-21.504 44.544-28.672 59.392l-32.768 63.488q-15.36 32.768-29.696 62.464t-24.576 50.176q-43.008-59.392-66.048-130.048t-23.04-148.48q0-99.328 37.376-186.88t102.4-152.576 152.576-102.912 186.88-37.888z" p-id="1856"></path></svg>